<!DOCTYPE svg PUBLIC "-//W3C//DTD SVG 1.1//EN" "http://www.w3.org/Graphics/SVG/1.1/DTD/svg11.dtd">
<!-- Uploaded to: SVG Repo, www.svgrepo.com, Transformed by: SVG Repo Mixer Tools -->
<svg height="800px" width="800px" version="1.1" id="Layer_1" xmlns="http://www.w3.org/2000/svg" xmlns:xlink="http://www.w3.org/1999/xlink" viewBox="0 0 512 512" xml:space="preserve" fill="#000000">
<g id="SVGRepo_bgCarrier" stroke-width="0"/>
<g id="SVGRepo_tracerCarrier" stroke-linecap="round" stroke-linejoin="round"/>
<g id="SVGRepo_iconCarrier"> <path style="fill:#79695A;" d="M395.13,100.174c-9.223,0-16.696-7.473-16.696-16.696V16.696C378.435,7.473,385.908,0,395.13,0 c9.223,0,16.696,7.473,16.696,16.696v66.783C411.826,92.701,404.353,100.174,395.13,100.174z"/> <path style="fill:#6C5B52;" d="M461.913,100.174c-9.223,0-16.696-7.473-16.696-16.696V16.696C445.217,7.473,452.69,0,461.913,0 s16.696,7.473,16.696,16.696v66.783C478.609,92.701,471.136,100.174,461.913,100.174z"/> <path style="fill:#79695A;" d="M445.217,183.652V395.13c0,14.803-6.457,28.049-16.696,37.176 c-8.904,8.125-20.591,12.911-33.391,12.911c-27.603,0-50.087-22.483-50.087-50.087V261.565c0-9.238-7.456-16.696-16.696-16.696 h-44.522c-9.239,0-16.696-7.457-16.696-16.696s7.456-16.696,16.696-16.696h44.522c27.603,0,50.087,22.483,50.087,50.087V395.13 c0,9.238,7.456,16.696,16.696,16.696c9.239,0,16.696-7.457,16.696-16.696V183.652c0-9.238,7.456-16.696,16.696-16.696 C437.761,166.957,445.217,174.414,445.217,183.652z"/> <path style="fill:#6C5B52;" d="M445.217,183.652V395.13c0,14.803-6.457,28.049-16.696,37.176v-265.35 C437.761,166.957,445.217,174.414,445.217,183.652z"/> <path style="fill:#FF6243;" d="M300.522,445.217v-384c0-27.619-22.468-50.087-50.087-50.087H50.087C22.468,11.13,0,33.598,0,61.217 v384H300.522z"/> <path style="fill:#FF0C38;" d="M250.435,11.13H150.261v434.087h150.261v-384C300.522,33.598,278.054,11.13,250.435,11.13z"/> <path style="fill:#DBE1F1;" d="M217.043,178.087H83.478c-9.223,0-16.696-7.473-16.696-16.696V94.609 c0-9.223,7.473-16.696,16.696-16.696h133.565c9.223,0,16.696,7.473,16.696,16.696v66.783 C233.739,170.614,226.266,178.087,217.043,178.087z"/> <path style="fill:#FFE477;" d="M198.568,302.414l-33.391,66.783c-3.452,6.79-9.239,9.461-14.916,9.238 c-10.797-0.334-21.369-11.13-14.916-24.153l14.916-29.941l6.345-12.689H116.87c-12.355,0-20.481-13.134-14.916-24.153l33.391-66.783 c3.452-6.79,9.128-9.461,14.916-9.126c10.797,0.223,21.369,11.019,14.916,24.042l-14.916,29.94l-6.345,12.689h39.737 C196.007,278.261,204.133,291.395,198.568,302.414z"/> <path style="fill:#D0D5E5;" d="M217.043,77.913h-66.783v100.174h66.783c9.223,0,16.696-7.473,16.696-16.696V94.609 C233.739,85.386,226.266,77.913,217.043,77.913z"/> <g> <path style="fill:#FFB655;" d="M198.568,302.414l-33.391,66.783c-3.452,6.79-9.239,9.461-14.916,9.238v-54.094l6.345-12.689h-6.345 v-33.391h33.391C196.007,278.261,204.133,291.395,198.568,302.414z"/> <path style="fill:#FFB655;" d="M165.177,235.631l-14.916,29.941V211.59C161.057,211.812,171.63,222.609,165.177,235.631z"/> </g> <path style="fill:#79695A;" d="M0,411.826v83.478C0,504.527,7.473,512,16.696,512h267.13c9.223,0,16.696-7.473,16.696-16.696 v-83.478H0z"/> <path style="fill:#6C5B52;" d="M150.261,512h133.565c9.223,0,16.696-7.473,16.696-16.696v-83.478H150.261V512z"/> <path style="fill:#7C84E8;" d="M461.913,200.348H395.13c-27.619,0-50.087-22.468-50.087-50.087V83.478 c0-9.223,7.473-16.696,16.696-16.696h133.565c9.217,0,16.696,7.473,16.696,16.696v66.783 C512,177.88,489.532,200.348,461.913,200.348z"/> <path style="fill:#515BE0;" d="M495.304,66.783h-66.783v133.565h33.391c27.619,0,50.087-22.468,50.087-50.087V83.478 C512,74.256,504.521,66.783,495.304,66.783z"/> </g>
</svg>